<svg width="140" height="36" viewBox="0 0 140 36" fill="none" xmlns="http://www.w3.org/2000/svg">
<path fill-rule="evenodd" clip-rule="evenodd" d="M32.7647 25.049C30.9788 31.4868 26.8209 36 21.9767 36C17.2418 36 13.1627 31.6885 11.3133 25.4825V32.1057C8.08039 29.9311 5.71709 25.543 5.17483 20.3044V28.1387C2.06974 26.0433 0 22.2866 0 18.0007C0 13.7149 2.06974 9.95811 5.17483 7.86274V15.6967C5.71709 10.4581 8.08039 6.07006 11.3133 3.89539V10.5175C13.1627 4.31153 17.2418 0 21.9767 0C26.8209 0 30.9788 4.51319 32.7647 10.951V3.89539C36.0677 6.11723 38.463 10.6495 38.9359 16.0387V7.86274C42.041 9.95811 44.1107 13.7149 44.1107 18.0007C44.1107 22.2866 42.041 26.0433 38.9359 28.1387V19.9624C38.463 25.3516 36.0677 29.8839 32.7647 32.1057V25.049ZM22.5099 11.6442C23.4965 16.013 24.1732 16.6898 28.5419 17.6763C28.7415 17.722 28.8837 17.8993 28.8837 18.1047C28.8837 18.31 28.742 18.4873 28.5419 18.533C24.1732 19.52 23.4969 20.1967 22.5099 24.5651C22.4647 24.7648 22.287 24.907 22.0816 24.907C21.8762 24.907 21.6985 24.7648 21.6533 24.5651C20.6663 20.1967 19.9901 19.52 15.6214 18.533C15.4213 18.4873 15.2791 18.31 15.2791 18.1047C15.2791 17.8993 15.4213 17.722 15.6214 17.6763C19.9901 16.6898 20.6663 16.013 21.6533 11.6442C21.6985 11.4445 21.8762 11.3023 22.0816 11.3023C22.287 11.3023 22.4647 11.4445 22.5099 11.6442Z" fill="black"/>
<path d="M63.9932 20.7698H69.4619V15.9181H63.9932V13.0856H70.1911V7.95349H57.7674V28.44H63.9932V20.7698Z" fill="black"/>
<path fill-rule="evenodd" clip-rule="evenodd" d="M82.9263 7.95349L86.7964 28.44H80.9211L80.22 25.4953H75.845L75.172 28.44H69.521L73.3911 7.95349H82.9263ZM79.1823 19.2554L78.2358 12.7631H77.8292L76.9107 19.2554H79.1823Z" fill="black"/>
<path d="M98.2866 16.0584L94.1079 7.95349H88.0083V28.44H94.2201V20.3632H94.3043L98.7353 28.44H104.204V7.95349H98.3427V16.0584H98.2866Z" fill="black"/>
<path d="M120.802 14.4879H116.315V28.44H110.061V14.4879H105.574V7.95349H120.802V14.4879Z" fill="black"/>
<path d="M128.408 7.95349L130.329 19.7742H131.114L132.867 7.95349H139.289L134.403 28.44H126.845L121.902 7.95349H128.408Z" fill="black"/>
</svg>
